# xmcd CD database file
#
# Track frame offsets:
#	150
#	18685
#	40400
#	53860
#	68980
#	86447
#	104350
#	121237
#	137645
#	154520
#	174417
#	191552
#	202107
#	222985
#	241925
#	260695
#	275040
#	292355
#	312730
#	331944
#
# Disc length: 4587 seconds
#
# Revision: 3
# Processed by: cddbd v1.5.2PL0 Copyright (c) Steve Scherf et al.
# Submitted via: CDex 1.70beta2
#
DISCID=3d11e914
DTITLE=Various Artist - 吹奏楽コンクール課題曲集 　Vol.4〈1981-1985〉
DYEAR=1998
DGENRE=Classical
TTITLE0=イリュージョン/鵜澤正晴
TTITLE1=東北地方の民謡によるコラージュ/櫛田テツ之扶
TTITLE2=シンフォニック・マーチ/斉藤正和/上岡洋一
TTITLE3=行進曲「青空の下で」/坂本智/藤田玄播
TTITLE4=吹奏楽のためのカプリチオ/吉田公彦
TTITLE5=序奏とアレグロ/木下牧子
TTITLE6=アイヌの輪舞/早川博二
TTITLE7=サンライズ・マーチ/岩河三郎
TTITLE8=吹奏楽のためのインヴェンション第1番/内藤淳一
TTITLE9=白鳳狂詩曲/藤掛廣幸
TTITLE10=カドリーユ/後藤　洋
TTITLE11=キューピッドのマーチ/川崎　優
TTITLE12=変容―断章/池上敏
TTITLE13=吹奏楽のための土俗的舞曲/和田薫
TTITLE14=シンフォニエッタ/三上次郎
TTITLE15=マーチ・オーパス・ワン/浦田健次
TTITLE16=Overture "Five Rings"/三枝成章
TTITLE17=吹奏楽のための交響詩「波の見える風景」/真島俊夫
TTITLE18=シンフォニック・ファンファーレとマーチ/仲本政国
TTITLE19=ポップ・ステップ・マーチ/森田一浩
EXTD=YEAR: 1998
EXTT0=
EXTT1=
EXTT2=
EXTT3=
EXTT4=
EXTT5=
EXTT6=
EXTT7=
EXTT8=
EXTT9=
EXTT10=
EXTT11=
EXTT12=
EXTT13=
EXTT14=
EXTT15=
EXTT16=
EXTT17=
EXTT18=
EXTT19=
PLAYORDER=
